# AST/ASF file generated using VICON BodyLanguage
# -----------------------------------------------
:version 1.10
:name VICON
:units
  mass 1.0
  length 0.45
  angle deg
:documentation
   .ast/.asf automatically generated from VICON data using
   VICON BodyBuilder and BodyLanguage model FoxedUp or BRILLIANT.MOD
:root
   order TX TY TZ RX RY RZ
   axis XYZ
   position 0 0 0  
   orientation 0 0 0 
:bonedata
  begin
     id 1 
     name lhipjoint
     direction 0.643824 -0.71708 0.266994 
     length 2.52133 
     axis 0 0 0  XYZ
  end
  begin
     id 2 
     name lfemur
     direction 0.34202 -0.939693 0  
     length 7.51824  
     axis 0 0 20  XYZ
    dof rx ry rz
    limits (-160.0 20.0)
           (-70.0 70.0)
           (-60.0 70.0)
  end
  begin
     id 3 
     name ltibia
     direction 0.34202 -0.939693 0   
     length 7.3685   
     axis 0 0 20   XYZ
    dof rx
    limits (-10.0 170.0)
  end
  begin
     id 4 
     name lfoot
     direction 0.105419 -0.289636 0.951314   
     length 2.20972   
     axis -90 7.62852e-016 20   XYZ
    dof rx rz
    limits (-45.0 90.0)
           (-70.0 20.0)
  end
  begin
     id 5 
     name ltoes
     direction 1.53549e-011 -4.21833e-011 1   
     length 1.10139   
     axis -90 7.62852e-016 20   XYZ
    dof rx
    limits (-90.0 20.0)
  end
  begin
     id 6 
     name rhipjoint
     direction -0.608823 -0.743445 0.276811   
     length 2.43192  
     axis 0 0 0  XYZ 
  end
  begin
     id 7 
     name rfemur
     direction -0.34202 -0.939693 0   
     length 7.69715   
     axis 0 0 -20   XYZ
    dof rx ry rz
    limits (-160.0 20.0)
           (-70.0 70.0)
           (-70.0 60.0)
  end
  begin
     id 8 
     name rtibia
     direction -0.34202 -0.939693 0   
     length 7.44924   
     axis 0 0 -20   XYZ
    dof rx
    limits (-10.0 170.0)
 end
 begin
     id 9 
     name rfoot
     direction -0.103614 -0.284677 0.953007   
     length 2.22623  
     axis -90 -7.62852e-016 -20   XYZ
    dof rx rz
    limits (-45.0 90.0)
           (-20.0 70.0)
  end
  begin
     id 10 
     name rtoes
     direction -1.53537e-011 -4.22026e-011 1   
     length 1.11   
     axis -90 -7.62852e-016 -20   XYZ
    dof rx
    limits (-90.0 20.0)
  end
  begin
     id 11 
     name lowerback
     direction -0.0101212 0.99662 -0.0815298   
     length 2.08277   
     axis 0 0 0   XYZ
    dof rx ry rz
    limits (-20.0 45.0)
           (-30.0 30.0)
           (-30.0 30.0)
  end
  begin
     id 12 
     name upperback
     direction 0.024314 0.999591 -0.0150645   
     length 2.08524   
     axis 0 0 0   XYZ
    dof rx ry rz
    limits (-20.0 45.0)
           (-30.0 30.0)
           (-30.0 30.0)
  end
  begin
     id 13 
     name thorax
     direction 0.0285959 0.999323 0.0231357   
     length 2.09645   
     axis 0 0 0   XYZ
    dof rx ry rz
    limits (-20.0 45.0)
           (-30.0 30.0)
           (-30.0 30.0)
  end
  begin
     id 14 
     name lowerneck
     direction -0.065512 0.979301 0.191515   
     length 1.63798   
     axis 0 0 0   XYZ
    dof rx ry rz
    limits (-20.0 45.0)
           (-30.0 30.0)
           (-30.0 30.0)
  end
  begin
     id 15 
     name upperneck
     direction 0.0498479 0.98191 -0.182667   
     length 1.68731   
     axis 0 0 0   XYZ
    dof rx ry rz
    limits (-20.0 45.0)
           (-30.0 30.0)
           (-30.0 30.0)
  end
  begin
     id 16
     name head
     direction 0.0230358 0.996257 -0.0833175  
     length 1.69785  
     axis 0 0 0   XYZ
    dof rx ry rz
    limits (-20.0 45.0)
           (-30.0 30.0)
           (-30.0 30.0)
  end
  begin
     id 17 
     name lclavicle
     direction 0.967963 0.201165 -0.150269  
     length 3.63976  
     axis 0 0 0   XYZ
    dof ry rz
    limits (-20.0 10.0)
           (0.0 20.0)
  end
  begin
     id 18 
     name lhumerus
     direction 1 -4.48954e-011 -2.92837e-028   
     length 5.32462   
     axis 180 -30 -90   XYZ
    dof rx ry rz
    limits (-60.0 90.0)
           (-90.0 90.0)
           (-90.0 90.0)
  end
  begin
     id 19
     name lradius
     direction 1 -4.48958e-011 -6.39511e-027   
     length 3.48402   
     axis 180 -30 -90   XYZ
    dof rx
    limits (-10.0 170.0)
  end
  begin
     id 20
     name lwrist
     direction 1 -4.48975e-011 -1.1413e-026   
     length 1.74201   
     axis 6.88575e-015 90 90   XYZ
    dof ry
    limits (-180.0 0.0)
 end
  begin
     id 21 
     name lhand
     direction 1 -4.48899e-011 -2.28192e-026   
     length 0.572476   
     axis 1.45643e-014 90 90   XYZ
    dof rx rz
    limits (-90.0 90.0)
           (-45.0 45.0)
  end
  begin
     id 22 
     name lfingers
     direction 1 -4.49155e-011 -4.5684e-026   
     length 0.461545   
     axis 2.91283e-014 90 90   XYZ
    dof rx
    limits (0.0 90.0)
  end
  begin
     id 23
     name lthumb
     direction 0.707107 -6.34943e-011 0.707107   
     length 0.662688   
     axis -90 45 -2.25915e-014   XYZ
    dof rx rz
    limits (-45.0 45.0)
           (-45.0 45.0)
  end
  begin
     id 24 
     name rclavicle
     direction -0.964103 0.264019 -0.0282629   
     length 3.54491  
     axis 0 0 0   XYZ 
    dof ry rz
    limits (-10.0 20.0)
           (-20.0 0.0)
  end
  begin
     id 25 
     name rhumerus
     direction -1 -4.48964e-011 -2.45032e-027  
     length 5.33589   
     axis 180 30 90   XYZ
    dof rx ry rz
    limits (-90.0 60.0)
           (-90.0 90.0)
           (-90.0 90.0)
  end
  begin
     id 26 
     name rradius
     direction -1 -4.48987e-011 -1.55093e-027   
     length 3.64134   
     axis 180 30 90   XYZ
    dof rx
    limits (-10.0 170.0)
  end
  begin
     id 27 
     name rwrist
     direction -1 -4.4897e-011 -1.14128e-026   
     length 1.82067   
     axis 6.88575e-015 -90 -90   XYZ
    dof ry
    limits (-180.0 0.0)
  end
  begin
     id 28
     name rhand
     direction -1 -4.49021e-011 -2.28301e-026   
     length 0.734811   
     axis 1.45643e-014 -90 -90   XYZ
    dof rx rz
    limits (-90.0 90.0)
           (-45.0 45.0)
  end
  begin
     id 29
     name rfingers
     direction -1 -4.48862e-011 -4.56319e-026   
     length 0.592424   
     axis 2.91283e-014 -90 -90   XYZ
    dof rx
    limits (0.0 90.0)
  end
  begin
     id 30
     name rthumb
     direction -0.707107 -6.34978e-011 0.707107   
     length 0.850605   
     axis -90 -45 2.25915e-014   XYZ
    dof rx rz
    limits (-45.0 45.0)
           (-45.0 45.0)
  end
:hierarchy
  begin
    root lhipjoint rhipjoint lowerback
    lhipjoint lfemur
    lfemur ltibia
    ltibia lfoot
    lfoot ltoes
    rhipjoint rfemur
    rfemur rtibia
    rtibia rfoot
    rfoot rtoes
    lowerback upperback
    upperback thorax
    thorax lowerneck lclavicle rclavicle
    lowerneck upperneck
    upperneck head
    lclavicle lhumerus
    lhumerus lradius
    lradius lwrist
    lwrist lhand lthumb
    lhand lfingers
    rclavicle rhumerus
    rhumerus rradius
    rradius rwrist
    rwrist rhand rthumb
    rhand rfingers
  end

#!OML:ASF F:\VICON\USERDATA\INSTALL\rory3\rory3.ASF
:FULLY-SPECIFIED
:DEGREES
339
root 3.87305 18.2852 -2.2681 2.89742 -21.1804 -0.509275
lowerback 9.76594 -3.40399 -3.62862
upperback 0.410562 -4.79173 3.0215
thorax -4.47891 -2.27695 5.83815
lowerneck -21.1653 0.354874 -9.33105
upperneck 24.7187 2.08911 5.50429
head 11.3908 0.748134 3.93141
rclavicle 5.80451e-014 -2.90226e-014
rhumerus -15.9955 21.0851 -78.9986
rradius 136.758
rwrist -1.31134
rhand -22.6954 20.7022
rfingers 7.12502
rthumb 3.73724 -9.2448
lclavicle 5.80451e-014 -2.90226e-014
lhumerus 10.8901 -16.3374 85.1279
lradius 130.021
lwrist 0.762572
lhand -9.04241 8.92505
lfingers 7.12502
lthumb 16.9056 38.2092
rfemur -26.1118 -2.15546 13.247
rtibia 55.4223
rfoot -2.43485 -4.70702
rtoes -2.05042
lfemur -12.6444 3.24776 -9.05371
ltibia 41.1003
lfoot -6.79859 -0.961296
ltoes -31.0161
340
root 3.90343 18.2905 -2.32874 2.9246 -21.2189 -0.591989
lowerback 9.51041 -3.28097 -3.43308
upperback 0.420125 -4.6047 2.91987
thorax -4.37287 -2.19247 5.57762
lowerneck -21.0552 0.343361 -9.52095
upperneck 24.8775 2.13842 5.45836
head 11.4249 0.740196 3.9568
rclavicle -4.43787e-014 -9.14409e-015
rhumerus -15.6776 20.995 -78.5116
rradius 136.541
rwrist -1.81197
rhand -22.6728 20.5541
rfingers 7.12502
rthumb 3.75907 -9.39246
lclavicle -4.43787e-014 -9.14409e-015
lhumerus 10.8926 -16.3025 85.1985
lradius 129.99
lwrist 0.233857
lhand -9.53486 9.3424
lfingers 7.12502
lthumb 16.4315 38.6665
rfemur -25.4066 -2.43398 13.5574
rtibia 56.4345
rfoot -1.66245 -4.73498
rtoes -2.8859
lfemur -12.739 2.80334 -8.65567
ltibia 41.5257
lfoot -6.73852 -0.429034
ltoes -30.5268
341
root 3.93148 18.2878 -2.38743 2.93501 -21.4238 -0.637493
lowerback 9.21148 -3.08344 -3.30073
upperback 0.448574 -4.32696 2.77402
thorax -4.22971 -2.06319 5.29332
lowerneck -20.9889 0.343222 -9.52058
upperneck 25.0374 2.16426 5.3384
head 11.4735 0.730306 3.92004
rclavicle 7.48921e-014 -9.14409e-015
rhumerus -15.2795 20.7844 -78.1598
rradius 136.176
rwrist -2.01431
rhand -22.5802 20.4266
rfingers 7.12502
rthumb 3.84849 -9.51841
lclavicle 7.48921e-014 -9.14409e-015
lhumerus 10.969 -16.2278 85.2359
lradius 129.94
lwrist 0.0745983
lhand -9.56001 9.30845
lfingers 7.12502
lthumb 16.4073 38.6345
rfemur -24.7227 -2.57964 13.8135
rtibia 57.3397
rfoot -0.635843 -4.94062
rtoes -3.12649
lfemur -12.6769 2.35719 -8.30764
ltibia 41.8806
lfoot -6.46114 -0.162663
ltoes -29.8893
342
root 3.95866 18.2671 -2.44134 2.86283 -21.8139 -0.525343
lowerback 8.90571 -2.92423 -3.46283
upperback 0.320032 -4.12657 2.72274
thorax -4.20821 -1.95918 5.29253
lowerneck -20.2631 0.462946 -9.69951
upperneck 24.9326 2.37437 5.12404
head 11.2768 0.779096 3.88113
rclavicle 6.85807e-014 -1.82882e-014
rhumerus -15.2046 21.0276 -77.8559
rradius 135.827
rwrist -1.96141
rhand -22.6448 20.5141
rfingers 7.12502
rthumb 3.78613 -9.43201
lclavicle 6.85807e-014 -1.82882e-014
lhumerus 10.5799 -15.8367 85.5414
lradius 129.911
lwrist -0.110784
lhand -9.54787 9.26933
lfingers 7.12502
lthumb 16.419 38.5945
rfemur -24.0273 -2.58386 13.8657
rtibia 58.1595
rfoot -0.0707674 -4.88961
rtoes -2.74906
lfemur -12.4452 2.16063 -8.12041
ltibia 42.1774
lfoot -5.90308 -0.368646
ltoes -30.1347
343
root 3.98723 18.2278 -2.49353 2.77231 -22.3369 -0.264838
lowerback 8.61777 -2.84012 -3.83155
upperback -0.0108015 -4.04365 2.73963
thorax -4.37647 -1.89831 5.50488
lowerneck -19.0901 0.744774 -10.115
upperneck 24.8478 2.80701 4.99094
head 10.9771 0.915032 3.93293
rclavicle -6.99722e-014 4.77083e-015
rhumerus -15.3716 21.6465 -77.7445
rradius 135.428
rwrist -1.58987
rhand -22.6873 20.7636
rfingers 7.12502
rthumb 3.74507 -9.18324
lclavicle -6.99722e-014 4.77083e-015
lhumerus 9.74495 -14.9524 86.1094
lradius 129.871
lwrist 0.238965
lhand -9.33079 8.34216
lfingers 7.12502
lthumb 16.628 37.6499
rfemur -23.4111 -2.50926 13.7531
rtibia 58.8831
rfoot 0.0952533 -4.49341
rtoes -2.74787
lfemur -12.16 2.09132 -8.08204
ltibia 42.416
lfoot -5.14826 -1.14461
ltoes -31.0119
344
root 4.01683 18.171 -2.54928 2.71542 -22.8832 -0.147836
lowerback 8.39205 -2.59661 -3.8472
upperback -0.114629 -3.72013 2.59481
thorax -4.40595 -1.73523 5.31599
lowerneck -18.8673 0.837106 -10.2736
upperneck 25.0679 2.96442 4.97738
head 11.0004 0.960214 3.97877
rclavicle 1.5207e-014 -6.36111e-015
rhumerus -15.199 21.4922 -77.8356
rradius 134.908
rwrist -0.914085
rhand -22.6141 21.0164
rfingers 7.12502
rthumb 3.81579 -8.92918
lclavicle 1.5207e-014 -6.36111e-015
lhumerus 9.592 -14.1561 86.4196
lradius 129.609
lwrist 1.66408
lhand -8.23703 5.51833
lfingers 7.12502
lthumb 17.6808 34.7345
rfemur -22.7937 -2.39509 13.7955
rtibia 59.4569
rfoot 0.286774 -4.13552
rtoes -3.12286
lfemur -11.8266 2.05676 -7.85756
ltibia 42.5625
lfoot -4.2647 -2.47691
ltoes -31.3458
345
root 4.04672 18.1015 -2.60123 2.57435 -23.4528 -0.0136921
lowerback 8.17267 -2.24548 -3.69782
upperback 0.04831 -3.24347 2.28144
thorax -4.19407 -1.51393 4.83139
lowerneck -19.4327 0.761204 -10.2466
upperneck 25.367 2.88878 5.08627
head 11.2275 0.933964 4.02872
rclavicle 2.13197e-014 -9.54166e-015
rhumerus -14.7719 20.7573 -77.9914
rradius 134.453
rwrist -0.224868
rhand -22.3903 21.2186
rfingers 7.12502
rthumb 4.03188 -8.72303
lclavicle 2.13197e-014 -9.54166e-015
lhumerus 10.0757 -14.2921 86.0823
lradius 129.647
lwrist 1.47074
lhand -8.65034 6.5421
lfingers 7.12502
lthumb 17.283 35.7936
rfemur -22.0124 -2.21563 13.7905
rtibia 59.8341
rfoot 0.316321 -3.70719
rtoes -3.49794
lfemur -11.3242 2.04771 -7.65459
ltibia 42.5557
lfoot -3.22385 -4.16287
ltoes -31.2177
346
root 4.0741 18.0283 -2.64555 2.38299 -24.1089 0.210889
lowerback 7.88052 -1.97357 -3.69012
upperback 0.1312 -2.8808 2.04036
thorax -3.99542 -1.34311 4.51792
lowerneck -19.5691 0.800036 -10.4286
upperneck 25.4721 2.98734 5.20594
head 11.2792 0.973343 4.12475
rclavicle -1.58531e-014 -7.15625e-015
rhumerus -14.5805 20.3606 -78.1969
rradius 134.078
rwrist 0.49708
rhand -22.4654 21.3471
rfingers 7.12502
rthumb 3.95935 -8.59581
lclavicle -1.58531e-014 -7.15625e-015
lhumerus 10.4635 -13.8848 85.6448
lradius 129.618
lwrist 1.46326
lhand -9.23219 7.54695
lfingers 7.12502
lthumb 16.7229 36.8467
rfemur -21.1397 -1.90356 13.6892
rtibia 59.9954
rfoot 0.109128 -3.07096
rtoes -5.13482
lfemur -10.6673 1.79783 -7.64963
ltibia 42.3521
lfoot -2.00607 -5.51429
ltoes -31.0753
347
root 4.10255 17.9428 -2.6923 2.32013 -24.8497 0.419087
lowerback 7.4447 -1.72464 -3.69141
upperback 0.13945 -2.54232 1.85874
thorax -3.78526 -1.1822 4.2738
lowerneck -19.5376 0.925591 -10.696
upperneck 25.5481 3.21735 5.32043
head 11.2729 1.06353 4.24621
rclavicle 3.76448e-014 1.59028e-015
rhumerus -14.5625 20.0776 -78.5048
rradius 133.667
rwrist 1.29842
rhand -22.7582 21.4207
rfingers 7.12502
rthumb 3.67659 -8.52733
lclavicle 3.76448e-014 1.59028e-015
lhumerus 10.6005 -13.4984 85.4302
lradius 129.664
lwrist 1.16405
lhand -9.81513 8.59929
lfingers 7.12502
lthumb 16.1617 37.9455
rfemur -20.4072 -1.57338 13.6037
rtibia 59.9898
rfoot -0.42756 -2.10554
rtoes -7.04688
lfemur -10.0626 1.34064 -7.71641
ltibia 41.9727
lfoot -1.25322 -6.23413
ltoes -33.005
